<?xml version="1.0" encoding="UTF-8"?>
<svg id="Lag_1" xmlns="http://www.w3.org/2000/svg" version="1.1" viewBox="0 0 210.52 212.83">
  <!-- Generator: Adobe Illustrator 29.8.2, SVG Export Plug-In . SVG Version: 2.1.1 Build 3)  -->
  <defs>
    <style>
      .st0 {
        fill: #00008d;
      }

      .st1 {
        fill: #ffeda5;
      }

      .st2 {
        fill: #c3ccff;
      }
    </style>
  </defs>
  <circle class="st1" cx="103.58" cy="107.47" r="92.31"/>
  <g>
    <path class="st0" d="M77.87,108.68c0,2.99-.44,5.72-1.33,8.19-.89,2.47-2.38,4.43-4.48,5.88-2.1,1.45-5.04,2.17-8.82,2.17-1.45,0-2.83-.14-4.17-.42-1.33-.28-2.56-.68-3.67-1.19-1.12-.51-2.1-1.12-2.94-1.82l1.89-4.34c1.03.75,2.24,1.35,3.64,1.82,1.4.47,3.01.7,4.83.7,2.01,0,3.59-.46,4.76-1.37,1.17-.91,1.98-2.12,2.45-3.64.47-1.52.7-3.14.7-4.87v-32.13h7.14v31.01ZM58.41,113.3v8.19h-5.95l1.75-8.19h4.2ZM65.83,77.67h5.6l.63,6.09-6.23-1.68v-4.41ZM75.98,83.76l1.19-6.09h5.6v4.41l-6.79,1.68Z"/>
    <path class="st0" d="M87.67,77.67h5.6l.7,6.09-6.3-1.68v-4.41ZM87.67,124.36v-4.41l6.3-1.54-.7,5.95h-5.6ZM118.75,102.87h-18.97v21.49h-7.21v-46.69h7.21v19.18h18.97v-19.18h7.21v46.69h-7.21v-21.49ZM97.89,83.76l1.19-6.09h5.6v4.41l-6.79,1.68ZM99.08,124.36l-.91-6.09,6.51,1.68v4.41h-5.6ZM113.85,77.67h5.6l.7,6.09-6.3-1.68v-4.41ZM113.85,124.36v-4.41l6.3-1.54-.7,5.95h-5.6ZM124.14,83.76l1.12-6.09h5.6v4.41l-6.72,1.68ZM125.26,124.36l-.91-6.09,6.51,1.68v4.41h-5.6Z"/>
    <path class="st0" d="M135.76,77.67h5.6l.7,6.09-6.3-1.68v-4.41ZM135.76,124.36v-4.41l6.3-1.54-.7,5.95h-5.6ZM147.87,124.36h-7.21v-46.69h7.21v46.69ZM140.66,124.36v-5.6h26.39v5.6h-26.39ZM145.98,83.76l1.19-6.09h5.6v4.41l-6.79,1.68ZM167.05,113.37v10.99h-6.65l2.45-10.99h4.2Z"/>
  </g>
  <circle class="st2" cx="150.36" cy="25.3" r="12.65"/>
  <circle class="st2" cx="131.71" cy="18.69" r="12.65"/>
  <circle class="st2" cx="179.42" cy="48.19" r="12.65"/>
  <circle class="st2" cx="166.77" cy="35.54" r="12.65"/>
  <circle class="st2" cx="186.98" cy="60.84" r="12.65"/>
  <circle class="st2" cx="192.07" cy="77.9" r="12.65"/>
  <circle class="st2" cx="195.88" cy="96.76" r="12.65"/>
  <circle class="st2" cx="197.87" cy="114.87" r="12.65"/>
  <circle class="st2" cx="194.4" cy="130.99" r="12.65"/>
  <circle class="st2" cx="186.98" cy="147.35" r="12.65"/>
  <circle class="st2" cx="176.69" cy="162.23" r="12.65"/>
  <circle class="st2" cx="166.77" cy="174.88" r="12.65"/>
  <circle class="st2" cx="151.39" cy="187.53" r="12.65"/>
  <circle class="st2" cx="134.4" cy="194.47" r="12.65"/>
  <circle class="st2" cx="115.59" cy="199.77" r="12.65"/>
  <circle class="st2" cx="96.65" cy="200.18" r="12.65"/>
  <circle class="st2" cx="77.61" cy="194.47" r="12.65"/>
  <circle class="st2" cx="60.92" cy="187.53" r="12.65"/>
  <circle class="st2" cx="44.65" cy="176.12" r="12.65"/>
  <circle class="st2" cx="32.01" cy="163.47" r="12.65"/>
  <circle class="st2" cx="23.92" cy="147.35" r="12.65"/>
  <circle class="st2" cx="16.44" cy="131.68" r="12.65"/>
  <circle class="st2" cx="12.65" cy="112.72" r="12.65"/>
  <circle class="st2" cx="12.65" cy="94.31" r="12.65"/>
  <circle class="st2" cx="16.44" cy="75.92" r="12.65"/>
  <circle class="st2" cx="25.3" cy="60.84" r="12.65"/>
  <circle class="st2" cx="36.78" cy="46.18" r="12.65"/>
  <circle class="st2" cx="49.43" cy="31.34" r="12.65"/>
  <circle class="st2" cx="64.96" cy="20.88" r="12.65"/>
  <circle class="st2" cx="81.2" cy="15.16" r="12.65"/>
  <circle class="st2" cx="93.85" cy="12.65" r="12.65"/>
  <circle class="st2" cx="112.97" cy="12.65" r="12.65"/>
</svg>